<mxfile host="65bd71144e">
    <diagram id="4mKPl1IwxNbf66QrhqBI" name="Page-1">
        <mxGraphModel dx="1709" dy="473" grid="1" gridSize="10" guides="1" tooltips="1" connect="1" arrows="1" fold="1" page="1" pageScale="1" pageWidth="827" pageHeight="1169" math="0" shadow="0">
            <root>
                <mxCell id="0"/>
                <mxCell id="1" parent="0"/>
                <mxCell id="4" value="" style="rounded=0;whiteSpace=wrap;html=1;fillColor=#ffe6cc;strokeColor=#d79b00;fillStyle=auto;gradientColor=none;" parent="1" vertex="1">
                    <mxGeometry x="30" y="130" width="700" height="455" as="geometry"/>
                </mxCell>
                <mxCell id="3" value="VPC" style="sketch=0;outlineConnect=0;gradientColor=none;html=1;whiteSpace=wrap;fontSize=12;fontStyle=0;shape=mxgraph.aws4.group;grIcon=mxgraph.aws4.group_vpc;strokeColor=#879196;fillColor=none;verticalAlign=top;align=left;spacingLeft=30;fontColor=#879196;dashed=0;" parent="1" vertex="1">
                    <mxGeometry x="60" y="165" width="620" height="395" as="geometry"/>
                </mxCell>
                <mxCell id="26" value="10.0.0.0/16" style="text;html=1;align=center;verticalAlign=middle;whiteSpace=wrap;rounded=0;fillStyle=auto;fontColor=#000000;" parent="1" vertex="1">
                    <mxGeometry x="140" y="170" width="60" height="25" as="geometry"/>
                </mxCell>
                <mxCell id="27" value="AZ" style="text;html=1;align=center;verticalAlign=middle;whiteSpace=wrap;rounded=0;fillStyle=auto;fontColor=#000000;" parent="1" vertex="1">
                    <mxGeometry x="40" y="135" width="60" height="30" as="geometry"/>
                </mxCell>
                <mxCell id="28" value="" style="rounded=1;arcSize=10;dashed=0;fillColor=none;gradientColor=none;strokeWidth=2;fillStyle=auto;fontColor=#000000;strokeColor=#000000;" parent="1" vertex="1">
                    <mxGeometry x="430" y="260" width="200" height="200" as="geometry"/>
                </mxCell>
                <mxCell id="29" value="" style="dashed=0;html=1;shape=mxgraph.aws3.permissions;fillColor=#D9A741;gradientColor=none;dashed=0;fillStyle=auto;fontColor=#000000;" parent="1" vertex="1">
                    <mxGeometry x="440" y="240" width="30" height="35" as="geometry"/>
                </mxCell>
                <mxCell id="30" value="" style="rounded=1;arcSize=10;dashed=0;fillColor=none;gradientColor=none;strokeWidth=2;fillStyle=auto;fontColor=#000000;strokeColor=#000000;" parent="1" vertex="1">
                    <mxGeometry x="160" y="257.5" width="200" height="200" as="geometry"/>
                </mxCell>
                <mxCell id="32" value="EC2(今回はWebサーバー)" style="outlineConnect=0;dashed=0;verticalLabelPosition=bottom;verticalAlign=top;align=center;html=1;shape=mxgraph.aws3.ec2;fillColor=#F58534;gradientColor=none;fillStyle=auto;strokeColor=#000000;fontColor=#000000;" parent="1" vertex="1">
                    <mxGeometry x="221.75" y="308.5" width="76.5" height="93" as="geometry"/>
                </mxCell>
                <mxCell id="39" value="RDS(今回)" style="outlineConnect=0;dashed=0;verticalLabelPosition=bottom;verticalAlign=top;align=center;html=1;shape=mxgraph.aws3.rds;fillColor=#2E73B8;gradientColor=none;fillStyle=auto;strokeColor=#000000;fontColor=#000000;" parent="1" vertex="1">
                    <mxGeometry x="494" y="317" width="76" height="81" as="geometry"/>
                </mxCell>
                <mxCell id="41" value="" style="endArrow=classic;html=1;fontColor=#000000;strokeColor=#030303;" parent="1" source="39" edge="1">
                    <mxGeometry width="50" height="50" relative="1" as="geometry">
                        <mxPoint x="350" y="380" as="sourcePoint"/>
                        <mxPoint x="310" y="358" as="targetPoint"/>
                    </mxGeometry>
                </mxCell>
                <mxCell id="42" value="10.0.0.0/24" style="text;html=1;align=center;verticalAlign=middle;whiteSpace=wrap;rounded=0;fillStyle=auto;fontColor=#000000;" parent="1" vertex="1">
                    <mxGeometry x="170" y="260" width="60" height="25" as="geometry"/>
                </mxCell>
                <mxCell id="43" value="10.0.1.0/24" style="text;html=1;align=center;verticalAlign=middle;whiteSpace=wrap;rounded=0;fillStyle=auto;fontColor=#000000;" parent="1" vertex="1">
                    <mxGeometry x="440" y="275" width="60" height="25" as="geometry"/>
                </mxCell>
                <mxCell id="53" value="" style="edgeStyle=none;html=1;strokeColor=#030303;fontColor=#000000;" parent="1" source="44" target="49" edge="1">
                    <mxGeometry relative="1" as="geometry"/>
                </mxCell>
                <mxCell id="44" value="" style="outlineConnect=0;dashed=0;verticalLabelPosition=bottom;verticalAlign=top;align=center;html=1;shape=mxgraph.aws3.router;fillColor=#F58536;gradientColor=none;fillStyle=auto;strokeColor=#000000;fontColor=#000000;" parent="1" vertex="1">
                    <mxGeometry x="101" y="321.5" width="69" height="72" as="geometry"/>
                </mxCell>
                <mxCell id="47" value="" style="outlineConnect=0;dashed=0;verticalLabelPosition=bottom;verticalAlign=top;align=center;html=1;shape=mxgraph.aws3.internet_3;fillColor=#D2D3D3;gradientColor=none;fillStyle=auto;strokeColor=#000000;fontColor=#000000;" parent="1" vertex="1">
                    <mxGeometry x="-240" y="271.5" width="150" height="130" as="geometry"/>
                </mxCell>
                <mxCell id="48" value="ルーター&lt;br&gt;ルート設定&lt;br&gt;（ルートテーブル）" style="text;html=1;align=center;verticalAlign=middle;whiteSpace=wrap;rounded=0;fillStyle=auto;fontColor=#000000;" parent="1" vertex="1">
                    <mxGeometry x="60" y="393.5" width="143.5" height="46.5" as="geometry"/>
                </mxCell>
                <mxCell id="49" value="" style="outlineConnect=0;dashed=0;verticalLabelPosition=bottom;verticalAlign=top;align=center;html=1;shape=mxgraph.aws3.internet_gateway;fillColor=#F58534;gradientColor=none;fillStyle=auto;strokeColor=#000000;fontColor=#000000;" parent="1" vertex="1">
                    <mxGeometry x="-8" y="319" width="69" height="72" as="geometry"/>
                </mxCell>
                <mxCell id="50" value="" style="endArrow=classic;html=1;fontColor=#000000;strokeColor=#030303;entryX=1;entryY=0.5;entryDx=0;entryDy=0;entryPerimeter=0;" parent="1" source="32" target="44" edge="1">
                    <mxGeometry width="50" height="50" relative="1" as="geometry">
                        <mxPoint x="224" y="354.47558558558546" as="sourcePoint"/>
                        <mxPoint x="40" y="354.89" as="targetPoint"/>
                    </mxGeometry>
                </mxCell>
                <mxCell id="52" value="" style="endArrow=classic;html=1;fontColor=#000000;strokeColor=#030303;entryX=1;entryY=0.5;entryDx=0;entryDy=0;entryPerimeter=0;" parent="1" target="49" edge="1">
                    <mxGeometry width="50" height="50" relative="1" as="geometry">
                        <mxPoint x="100" y="359" as="sourcePoint"/>
                        <mxPoint x="48.25" y="360.72" as="targetPoint"/>
                    </mxGeometry>
                </mxCell>
                <mxCell id="54" value="" style="endArrow=classic;html=1;fontColor=#000000;strokeColor=#FFFFFF;fillColor=#f5f5f5;" parent="1" target="47" edge="1">
                    <mxGeometry width="50" height="50" relative="1" as="geometry">
                        <mxPoint x="-10" y="360" as="sourcePoint"/>
                        <mxPoint x="71" y="365" as="targetPoint"/>
                        <Array as="points">
                            <mxPoint x="-90" y="360"/>
                        </Array>
                    </mxGeometry>
                </mxCell>
                <mxCell id="55" value="インターネットへ&lt;br&gt;" style="text;html=1;align=center;verticalAlign=middle;whiteSpace=wrap;rounded=0;fillStyle=auto;fontColor=#FFFFFF;" parent="1" vertex="1">
                    <mxGeometry x="-140" y="393.5" width="150" height="25" as="geometry"/>
                </mxCell>
                <mxCell id="56" value="外部公開する必要性がないため&lt;br&gt;VPC内のサブネット内からでしかアクセスできない&lt;br&gt;(今回の構成上)&lt;br&gt;プライベートサブネット" style="text;html=1;align=center;verticalAlign=middle;whiteSpace=wrap;rounded=0;fillStyle=auto;fontColor=#000000;" parent="1" vertex="1">
                    <mxGeometry x="430" y="470" width="223" height="70" as="geometry"/>
                </mxCell>
                <mxCell id="58" value="インターネット上に公開されていることを想定&lt;br&gt;パブリクなサブネットとなる" style="text;html=1;align=center;verticalAlign=middle;whiteSpace=wrap;rounded=0;fillStyle=auto;fontColor=#000000;" parent="1" vertex="1">
                    <mxGeometry x="170" y="470" width="190" height="50" as="geometry"/>
                </mxCell>
                <mxCell id="61" value="今回の構成では&lt;br&gt;プライベートサブネットのRDSに対して、実際にネット公開されているサーバーを介し接続しているため&lt;br&gt;外部のインターネット環境から、直接RDSにアクセスして管理するのは難しい&lt;br&gt;これはRDSに限らずプライベートサブネット内にEC2などがある場合も同様のためweb公開されているサーバーを踏みだいにしてアクセスしなくてはならない" style="text;html=1;align=center;verticalAlign=middle;whiteSpace=wrap;rounded=0;fillStyle=auto;fontColor=#FFFFFF;" vertex="1" parent="1">
                    <mxGeometry x="30" y="10" width="430" height="110" as="geometry"/>
                </mxCell>
                <mxCell id="79" value="" style="rounded=0;whiteSpace=wrap;html=1;fillColor=#ffe6cc;strokeColor=#d79b00;fillStyle=auto;gradientColor=none;" vertex="1" parent="1">
                    <mxGeometry x="30" y="770" width="700" height="455" as="geometry"/>
                </mxCell>
                <mxCell id="80" value="VPC" style="sketch=0;outlineConnect=0;gradientColor=none;html=1;whiteSpace=wrap;fontSize=12;fontStyle=0;shape=mxgraph.aws4.group;grIcon=mxgraph.aws4.group_vpc;strokeColor=#879196;fillColor=none;verticalAlign=top;align=left;spacingLeft=30;fontColor=#879196;dashed=0;" vertex="1" parent="1">
                    <mxGeometry x="60" y="805" width="620" height="395" as="geometry"/>
                </mxCell>
                <mxCell id="81" value="10.0.0.0/16" style="text;html=1;align=center;verticalAlign=middle;whiteSpace=wrap;rounded=0;fillStyle=auto;fontColor=#000000;" vertex="1" parent="1">
                    <mxGeometry x="140" y="810" width="60" height="25" as="geometry"/>
                </mxCell>
                <mxCell id="82" value="AZ" style="text;html=1;align=center;verticalAlign=middle;whiteSpace=wrap;rounded=0;fillStyle=auto;fontColor=#000000;" vertex="1" parent="1">
                    <mxGeometry x="40" y="775" width="60" height="30" as="geometry"/>
                </mxCell>
                <mxCell id="105" value="" style="edgeStyle=none;html=1;fontColor=#FF0080;" edge="1" parent="1" source="83" target="85">
                    <mxGeometry relative="1" as="geometry"/>
                </mxCell>
                <mxCell id="83" value="" style="rounded=1;arcSize=10;dashed=0;fillColor=none;gradientColor=none;strokeWidth=2;fillStyle=auto;fontColor=#000000;strokeColor=#000000;" vertex="1" parent="1">
                    <mxGeometry x="430" y="900" width="200" height="200" as="geometry"/>
                </mxCell>
                <mxCell id="84" value="" style="dashed=0;html=1;shape=mxgraph.aws3.permissions;fillColor=#D9A741;gradientColor=none;dashed=0;fillStyle=auto;fontColor=#000000;" vertex="1" parent="1">
                    <mxGeometry x="440" y="880" width="30" height="35" as="geometry"/>
                </mxCell>
                <mxCell id="106" value="" style="edgeStyle=none;html=1;fontColor=#FF0080;" edge="1" parent="1" source="85" target="83">
                    <mxGeometry relative="1" as="geometry"/>
                </mxCell>
                <mxCell id="85" value="" style="rounded=1;arcSize=10;dashed=0;fillColor=none;gradientColor=none;strokeWidth=2;fillStyle=auto;fontColor=#000000;strokeColor=#000000;" vertex="1" parent="1">
                    <mxGeometry x="160" y="897.5" width="200" height="200" as="geometry"/>
                </mxCell>
                <mxCell id="86" value="踏み台用のサーバー" style="outlineConnect=0;dashed=0;verticalLabelPosition=bottom;verticalAlign=top;align=center;html=1;shape=mxgraph.aws3.ec2;fillColor=#F58534;gradientColor=none;fillStyle=auto;strokeColor=#000000;fontColor=#000000;" vertex="1" parent="1">
                    <mxGeometry x="221.75" y="948.5" width="76.5" height="93" as="geometry"/>
                </mxCell>
                <mxCell id="88" value="" style="endArrow=classic;html=1;fontColor=#000000;strokeColor=#030303;" edge="1" parent="1" target="86">
                    <mxGeometry width="50" height="50" relative="1" as="geometry">
                        <mxPoint x="494" y="997.5855855855855" as="sourcePoint"/>
                        <mxPoint x="310" y="998" as="targetPoint"/>
                    </mxGeometry>
                </mxCell>
                <mxCell id="89" value="10.0.0.0/24" style="text;html=1;align=center;verticalAlign=middle;whiteSpace=wrap;rounded=0;fillStyle=auto;fontColor=#000000;" vertex="1" parent="1">
                    <mxGeometry x="170" y="900" width="60" height="25" as="geometry"/>
                </mxCell>
                <mxCell id="90" value="10.0.1.0/24" style="text;html=1;align=center;verticalAlign=middle;whiteSpace=wrap;rounded=0;fillStyle=auto;fontColor=#000000;" vertex="1" parent="1">
                    <mxGeometry x="440" y="915" width="60" height="25" as="geometry"/>
                </mxCell>
                <mxCell id="91" value="" style="edgeStyle=none;html=1;strokeColor=#030303;fontColor=#000000;" edge="1" parent="1" source="92" target="94">
                    <mxGeometry relative="1" as="geometry"/>
                </mxCell>
                <mxCell id="92" value="" style="outlineConnect=0;dashed=0;verticalLabelPosition=bottom;verticalAlign=top;align=center;html=1;shape=mxgraph.aws3.router;fillColor=#F58536;gradientColor=none;fillStyle=auto;strokeColor=#000000;fontColor=#000000;" vertex="1" parent="1">
                    <mxGeometry x="101" y="961.5" width="69" height="72" as="geometry"/>
                </mxCell>
                <mxCell id="93" value="ルーター&lt;br&gt;ルート設定&lt;br&gt;（ルートテーブル）" style="text;html=1;align=center;verticalAlign=middle;whiteSpace=wrap;rounded=0;fillStyle=auto;fontColor=#000000;" vertex="1" parent="1">
                    <mxGeometry x="60" y="1033.5" width="143.5" height="46.5" as="geometry"/>
                </mxCell>
                <mxCell id="94" value="" style="outlineConnect=0;dashed=0;verticalLabelPosition=bottom;verticalAlign=top;align=center;html=1;shape=mxgraph.aws3.internet_gateway;fillColor=#F58534;gradientColor=none;fillStyle=auto;strokeColor=#000000;fontColor=#000000;" vertex="1" parent="1">
                    <mxGeometry x="-8" y="959" width="69" height="72" as="geometry"/>
                </mxCell>
                <mxCell id="95" value="" style="endArrow=classic;html=1;fontColor=#000000;strokeColor=#030303;entryX=1;entryY=0.5;entryDx=0;entryDy=0;entryPerimeter=0;" edge="1" parent="1" source="86" target="92">
                    <mxGeometry width="50" height="50" relative="1" as="geometry">
                        <mxPoint x="224" y="994.4755855855855" as="sourcePoint"/>
                        <mxPoint x="40" y="994.89" as="targetPoint"/>
                    </mxGeometry>
                </mxCell>
                <mxCell id="96" value="" style="endArrow=classic;html=1;fontColor=#000000;strokeColor=#030303;entryX=1;entryY=0.5;entryDx=0;entryDy=0;entryPerimeter=0;" edge="1" parent="1" target="94">
                    <mxGeometry width="50" height="50" relative="1" as="geometry">
                        <mxPoint x="100" y="999" as="sourcePoint"/>
                        <mxPoint x="48.25" y="1000.72" as="targetPoint"/>
                    </mxGeometry>
                </mxCell>
                <mxCell id="97" value="" style="endArrow=classic;html=1;fontColor=#000000;strokeColor=#FFFFFF;fillColor=#f5f5f5;" edge="1" parent="1">
                    <mxGeometry width="50" height="50" relative="1" as="geometry">
                        <mxPoint x="-10" y="970" as="sourcePoint"/>
                        <mxPoint x="-150" y="410" as="targetPoint"/>
                        <Array as="points">
                            <mxPoint x="-140" y="450"/>
                        </Array>
                    </mxGeometry>
                </mxCell>
                <mxCell id="100" value="内部サーバー" style="outlineConnect=0;dashed=0;verticalLabelPosition=bottom;verticalAlign=top;align=center;html=1;shape=mxgraph.aws3.ec2;fillColor=#F58534;gradientColor=none;fillStyle=auto;strokeColor=#000000;fontColor=#000000;" vertex="1" parent="1">
                    <mxGeometry x="500" y="951" width="76.5" height="89" as="geometry"/>
                </mxCell>
                <mxCell id="101" value="インターネットゲートウェイ" style="text;html=1;align=center;verticalAlign=middle;whiteSpace=wrap;rounded=0;fillStyle=auto;fontColor=#FF0080;" vertex="1" parent="1">
                    <mxGeometry x="-83.5" y="272.5" width="220" height="46.5" as="geometry"/>
                </mxCell>
                <mxCell id="102" value="インターネットゲートウェイ" style="text;html=1;align=center;verticalAlign=middle;whiteSpace=wrap;rounded=0;fillStyle=auto;fontColor=#FF0080;" vertex="1" parent="1">
                    <mxGeometry x="-80" y="912.5" width="220" height="46.5" as="geometry"/>
                </mxCell>
                <mxCell id="104" value="" style="outlineConnect=0;dashed=0;verticalLabelPosition=bottom;verticalAlign=top;align=center;html=1;shape=mxgraph.aws3.vpc_nat_gateway;fillColor=#F58536;gradientColor=none;fontColor=#FF0080;" vertex="1" parent="1">
                    <mxGeometry x="345.5" y="1100" width="69" height="72" as="geometry"/>
                </mxCell>
                <mxCell id="107" value="" style="endArrow=classic;html=1;fontColor=#000000;strokeColor=#030303;exitX=0;exitY=0.79;exitDx=0;exitDy=0;exitPerimeter=0;" edge="1" parent="1" source="100">
                    <mxGeometry width="50" height="50" relative="1" as="geometry">
                        <mxPoint x="609.75" y="1122.1655855855854" as="sourcePoint"/>
                        <mxPoint x="414" y="1120.0026437976437" as="targetPoint"/>
                    </mxGeometry>
                </mxCell>
                <mxCell id="108" value="" style="endArrow=classic;html=1;fontColor=#000000;strokeColor=#030303;exitX=0;exitY=0.5;exitDx=0;exitDy=0;exitPerimeter=0;entryX=0.855;entryY=0.855;entryDx=0;entryDy=0;entryPerimeter=0;" edge="1" parent="1" source="104" target="94">
                    <mxGeometry width="50" height="50" relative="1" as="geometry">
                        <mxPoint x="289.5" y="1126.3100000000002" as="sourcePoint"/>
                        <mxPoint x="203.5" y="1225.0026437976437" as="targetPoint"/>
                    </mxGeometry>
                </mxCell>
                <mxCell id="109" value="NAT ゲートウェイ" style="text;html=1;align=center;verticalAlign=middle;whiteSpace=wrap;rounded=0;fillStyle=auto;fontColor=#000000;" vertex="1" parent="1">
                    <mxGeometry x="308.25" y="1160" width="143.5" height="46.5" as="geometry"/>
                </mxCell>
                <mxCell id="110" value="上記の構成では、WEBサーバーを介してプライベートサブネット内のインスタンへ接続しRDSからの返答をWEBサーバーを介していたが、下記の場合は応答した後の返信用のトラフィックはNATゲートウェイを&lt;br&gt;介してインターネットに出る" style="text;html=1;align=center;verticalAlign=middle;whiteSpace=wrap;rounded=0;fillStyle=auto;fontColor=#FFFFFF;" vertex="1" parent="1">
                    <mxGeometry x="30" y="670" width="430" height="90" as="geometry"/>
                </mxCell>
            </root>
        </mxGraphModel>
    </diagram>
</mxfile>